<svg width="22" height="26" viewBox="0 0 22 26" fill="none" xmlns="http://www.w3.org/2000/svg">
<path d="M11 2.16667C8.85733 2.16667 6.76282 2.80204 4.98129 3.99242C3.19975 5.1828 1.81122 6.87473 0.991269 8.85427C0.17132 10.8338 -0.0432162 13.012 0.37479 15.1135C0.792797 17.2149 1.82457 19.1453 3.33964 20.6603C4.85471 22.1754 6.78503 23.2072 8.88649 23.6252C10.9879 24.0432 13.1662 23.8287 15.1457 23.0087C17.1252 22.1888 18.8172 20.8002 20.0076 19.0187C21.1979 17.2372 21.8333 15.1426 21.8333 13C21.8333 11.5774 21.5531 10.1686 21.0087 8.85427C20.4642 7.53991 19.6663 6.34565 18.6603 5.33968C17.6543 4.33371 16.4601 3.53574 15.1457 2.99131C13.8313 2.44688 12.4226 2.16667 11 2.16667ZM11 21.6667C9.28586 21.6667 7.61025 21.1584 6.18502 20.2061C4.7598 19.2538 3.64897 17.9002 2.99301 16.3166C2.33705 14.733 2.16542 12.9904 2.49983 11.3092C2.83423 9.62805 3.65965 8.0838 4.87171 6.87175C6.08376 5.65969 7.62801 4.83427 9.30918 4.49987C10.9904 4.16546 12.7329 4.33709 14.3166 4.99305C15.9002 5.64901 17.2537 6.75984 18.206 8.18506C19.1583 9.61029 19.6666 11.2859 19.6666 13C19.6666 15.2985 18.7535 17.5029 17.1282 19.1283C15.5029 20.7536 13.2985 21.6667 11 21.6667Z" fill="white"/>
<path d="M15.3333 11.9167H12.0833V8.66666C12.0833 8.37934 11.9692 8.10379 11.766 7.90063C11.5628 7.69747 11.2873 7.58333 11 7.58333C10.7126 7.58333 10.4371 7.69747 10.2339 7.90063C10.0308 8.10379 9.91663 8.37934 9.91663 8.66666V13C9.91663 13.2873 10.0308 13.5629 10.2339 13.766C10.4371 13.9692 10.7126 14.0833 11 14.0833H15.3333C15.6206 14.0833 15.8962 13.9692 16.0993 13.766C16.3025 13.5629 16.4166 13.2873 16.4166 13C16.4166 12.7127 16.3025 12.4371 16.0993 12.234C15.8962 12.0308 15.6206 11.9167 15.3333 11.9167Z" fill="white"/>
</svg>
