<svg width="18" height="26" viewBox="0 0 18 26" fill="none" xmlns="http://www.w3.org/2000/svg">
<g clip-path="url(#clip0_2:106)">
<path d="M18.0895 18.2616C18.0461 17.9933 17.8779 17.764 17.626 17.6277L13.8989 15.4318L13.8682 15.4146C13.7119 15.3364 13.5393 15.2963 13.3646 15.2976C13.0523 15.2976 12.7541 15.4159 12.5471 15.6234L11.4471 16.724C11.4 16.7687 11.2466 16.8334 11.2001 16.8358C11.1873 16.8347 9.92008 16.7435 7.5871 14.4102C5.25829 12.0819 5.15949 10.8108 5.15871 10.8108C5.16001 10.7458 5.22396 10.5929 5.26946 10.5456L6.20754 9.60778C6.538 9.27654 6.63706 8.72742 6.44102 8.30206L4.36934 4.40388C4.2188 4.09396 3.92631 3.9026 3.60183 3.9026C3.37225 3.9026 3.15073 3.99776 2.97757 4.17066L0.420466 6.72204C0.175286 6.96592 -0.0358344 7.39232 -0.0818544 7.73552C-0.104214 7.89958 -0.557914 11.8157 4.81108 17.1855C9.36914 21.743 12.9233 22.0971 13.9048 22.0971C14.0244 22.0987 14.1439 22.0925 14.2626 22.0787C14.6048 22.0329 15.0306 21.8223 15.2743 21.5782L17.8293 19.0234C18.0378 18.8139 18.133 18.537 18.0895 18.2616Z" fill="white"/>
</g>
<defs>
<clipPath id="clip0_2:106">
<rect width="18" height="26" fill="white"/>
</clipPath>
</defs>
</svg>
