<svg width="40" height="40" viewBox="0 0 40 40" fill="none" xmlns="http://www.w3.org/2000/svg">
<rect x="0.5" y="0.5" width="39" height="39" rx="19.5" stroke="#0A1547"/>
<path d="M26.5833 14.2858H12.9722C12.7144 14.2858 12.4671 14.3861 12.2848 14.5647C12.1024 14.7433 12 14.9856 12 15.2381V24.762C12 25.0145 12.1024 25.2568 12.2848 25.4354C12.4671 25.614 12.7144 25.7143 12.9722 25.7143H26.5833C26.8412 25.7143 27.0885 25.614 27.2708 25.4354C27.4531 25.2568 27.5556 25.0145 27.5556 24.762V15.2381C27.5556 14.9856 27.4531 14.7433 27.2708 14.5647C27.0885 14.3861 26.8412 14.2858 26.5833 14.2858ZM25.8347 24.762H13.7792L17.1819 21.3143L16.4819 20.6524L12.9722 24.2096V15.962L19.0146 21.8524C19.1967 22.0298 19.4432 22.1294 19.7 22.1294C19.9568 22.1294 20.2033 22.0298 20.3854 21.8524L26.5833 15.8143V24.1477L23.0056 20.6429L22.3201 21.3143L25.8347 24.762ZM13.609 15.2381H25.7958L19.7 21.1762L13.609 15.2381Z" fill="#0A1547"/>
</svg>
