<svg width="40" height="40" viewBox="0 0 40 40" fill="none" xmlns="http://www.w3.org/2000/svg">
<rect x="0.5" y="0.5" width="39" height="39" rx="19.5" stroke="#0A1547"/>
<path d="M20.0599 12.5714C19.2861 12.5714 18.5446 12.7277 17.8352 13.0402C17.1259 13.3527 16.5133 13.7693 15.9974 14.2902C15.4816 14.811 15.0674 15.4286 14.7549 16.1428C14.4424 16.8571 14.2861 17.6012 14.2861 18.375C14.2861 18.8115 14.3457 19.2678 14.4647 19.744C14.5838 20.2202 14.7226 20.6617 14.8814 21.0684C15.0401 21.4752 15.2683 21.9266 15.5659 22.4226C15.8635 22.9186 16.1289 23.3378 16.362 23.68C16.5952 24.0223 16.9101 24.439 17.307 24.93C17.7038 25.4211 18.0113 25.7956 18.2296 26.0536C18.4478 26.3115 18.7554 26.6686 19.1522 27.125C19.2713 27.2639 19.3605 27.3631 19.4201 27.4226C19.4399 27.4524 19.4746 27.4896 19.5242 27.5342C19.5738 27.5789 19.6631 27.6359 19.7921 27.7053C19.9211 27.7748 20.0451 27.8095 20.1641 27.8095H20.2088C20.4865 27.8095 20.7345 27.6805 20.9528 27.4226C24.1274 23.7718 25.7147 20.7559 25.7147 18.375C25.7147 16.7182 25.2088 15.3442 24.1968 14.253C23.1453 13.1319 21.7663 12.5714 20.0599 12.5714ZM20.2385 26.7827C20.2286 26.8026 20.2088 26.8224 20.179 26.8422L20.1195 26.7827L19.8665 26.5C19.4895 26.0635 19.1968 25.7237 18.9885 25.4806C18.7802 25.2376 18.4875 24.8829 18.1105 24.4166C17.7336 23.9504 17.4359 23.556 17.2177 23.2336C16.9994 22.9112 16.7465 22.5193 16.4588 22.058C16.1711 21.5967 15.9503 21.18 15.7965 20.808C15.6428 20.436 15.5113 20.0342 15.4022 19.6027C15.2931 19.1711 15.2385 18.7619 15.2385 18.375C15.2385 17.5119 15.4568 16.7058 15.8933 15.9568C16.3298 15.2078 16.9176 14.6151 17.6567 14.1786C18.3958 13.742 19.1968 13.5238 20.0599 13.5238C20.8437 13.5238 21.5431 13.6602 22.1582 13.933C22.7732 14.2058 23.2668 14.5754 23.6388 15.0416C24.0108 15.5079 24.2911 16.0238 24.4796 16.5893C24.6681 17.1547 24.7623 17.75 24.7623 18.375C24.7623 20.5178 23.2544 23.3204 20.2385 26.7827ZM20.0153 15.4434C19.7078 15.4434 19.4077 15.493 19.115 15.5922C18.8223 15.6915 18.5594 15.8279 18.3263 16.0015C18.0932 16.1751 17.8873 16.3809 17.7088 16.619C17.5302 16.8571 17.3938 17.12 17.2995 17.4077C17.2053 17.6954 17.1582 17.993 17.1582 18.3006C17.1582 19.0942 17.4384 19.7688 17.9989 20.3244C18.5594 20.8799 19.234 21.1577 20.0227 21.1577C20.8114 21.1577 21.4836 20.8799 22.0391 20.3244C22.5947 19.7688 22.8724 19.0942 22.8724 18.3006C22.8724 17.9137 22.798 17.5441 22.6492 17.1919C22.5004 16.8398 22.297 16.5372 22.0391 16.2842C21.7812 16.0312 21.4761 15.8279 21.1239 15.6741C20.7717 15.5203 20.4022 15.4434 20.0153 15.4434ZM20.0153 20.2053C19.4895 20.2053 19.0381 20.0168 18.6611 19.6399C18.2841 19.2629 18.0957 18.8115 18.0957 18.2857C18.0957 17.7599 18.2817 17.311 18.6537 16.939C19.0257 16.5669 19.4746 16.3809 20.0004 16.3809C20.5262 16.3809 20.9751 16.5669 21.3471 16.939C21.7192 17.311 21.9052 17.7599 21.9052 18.2857C21.9052 18.9405 21.6423 19.4613 21.1165 19.8482C20.7891 20.0863 20.422 20.2053 20.0153 20.2053Z" fill="#0A1547"/>
</svg>
