<svg width="40" height="40" viewBox="0 0 40 40" fill="none" xmlns="http://www.w3.org/2000/svg">
<rect x="0.5" y="0.5" width="39" height="39" rx="19.5" stroke="#0A1547"/>
<path d="M23.5174 18.6817H22.6385C22.6382 18.3321 22.4992 17.9969 22.2521 17.7496C22.0049 17.5024 21.6698 17.3634 21.3203 17.363V16.4839C21.9028 16.4846 22.4612 16.7164 22.8731 17.1284C23.285 17.5404 23.5167 18.099 23.5174 18.6817Z" fill="#0A1547"/>
<path d="M25.275 18.6813H24.3962C24.3953 17.8655 24.0709 17.0834 23.4943 16.5066C22.9176 15.9297 22.1358 15.6053 21.3203 15.6043V14.7252C22.3688 14.7264 23.374 15.1436 24.1154 15.8852C24.8568 16.6269 25.2738 17.6324 25.275 18.6813Z" fill="#0A1547"/>
<path d="M24.3965 25.7143H24.3218C15.6873 25.2176 14.4614 17.9297 14.29 15.7055C14.2632 15.3569 14.376 15.0118 14.6035 14.7463C14.831 14.4808 15.1547 14.3166 15.5032 14.2897C15.5381 14.2871 15.5731 14.2858 15.6082 14.2858H17.9239C18.0999 14.2856 18.2719 14.3383 18.4177 14.437C18.5634 14.5358 18.6761 14.676 18.7412 14.8396L19.4091 16.4836C19.4735 16.6434 19.4894 16.8185 19.455 16.9873C19.4207 17.1561 19.3375 17.3111 19.2158 17.433L18.2799 18.3781C18.4255 19.2094 18.8231 19.9759 19.419 20.5735C20.0148 21.1711 20.7799 21.5709 21.6106 21.7187L22.5641 20.7737C22.6878 20.6533 22.8442 20.572 23.0138 20.54C23.1833 20.5079 23.3586 20.5265 23.5176 20.5935L25.1742 21.2572C25.3353 21.3244 25.4727 21.438 25.5689 21.5836C25.6652 21.7292 25.7159 21.9002 25.7147 22.0748V24.3957C25.7147 24.7454 25.5758 25.0808 25.3286 25.3281C25.0814 25.5754 24.7461 25.7143 24.3965 25.7143ZM15.6082 15.1649C15.5505 15.1647 15.4934 15.1759 15.44 15.1978C15.3866 15.2198 15.3381 15.252 15.2971 15.2927C15.2562 15.3334 15.2237 15.3818 15.2015 15.435C15.1792 15.4883 15.1677 15.5454 15.1675 15.6031C15.1675 15.6154 15.168 15.6276 15.1688 15.6396C15.371 18.2418 16.6672 24.3957 24.3701 24.8352C24.4864 24.8422 24.6007 24.8027 24.6879 24.7254C24.7751 24.648 24.828 24.5392 24.835 24.4229L24.8359 24.3957V22.0748L23.1793 21.411L21.9182 22.6638L21.7073 22.6374C17.8844 22.1583 17.3659 18.3341 17.3659 18.2946L17.3395 18.0836L18.5874 16.822L17.9283 15.1649H15.6082Z" fill="#0A1547"/>
</svg>
