<svg width="62" height="50" viewBox="0 0 62 50" fill="none" xmlns="http://www.w3.org/2000/svg">
<path fill-rule="evenodd" clip-rule="evenodd" d="M28.9732 0.336653C28.7016 0.61384 28.4795 1.90667 28.4795 3.21016C28.4795 5.37861 28.6598 5.57904 30.61 5.57904C32.6464 5.57904 32.7314 5.46105 32.5246 2.91378C32.3582 0.861886 31.9815 0.200902 30.8878 0.0409869C30.1059 -0.0734415 29.2447 0.060177 28.9732 0.336653ZM8.46025 2.96566C6.89583 3.85266 6.90139 3.86617 9.91953 6.89034C12.4531 9.42838 13.251 9.84771 14.7966 9.45183C15.8124 9.1917 16.6437 8.78588 16.6437 8.5492C16.6437 7.99696 10.9054 2.01754 10.4069 2.05024C10.1994 2.06445 9.32357 2.47596 8.46025 2.96566ZM47.4224 5.07299C45.8114 6.74891 44.4927 8.31324 44.4927 8.5492C44.4927 8.78588 45.324 9.1917 46.3398 9.45183C47.8854 9.84771 48.6833 9.42838 51.2169 6.89034C54.235 3.86617 54.2406 3.85266 52.6761 2.96566C50.5165 1.74106 50.694 1.66999 47.4224 5.07299ZM22.265 9.50656C16.4216 11.1811 9.28597 15.4391 4.02947 20.39C-1.48534 25.5834 -1.51875 25.238 5.04248 30.9494C22.446 46.0988 41.3123 45.28 58.5425 28.6261L62 25.2842L58.9902 22.0944C55.1519 18.0269 46.9713 12.4995 41.8519 10.5144C36.6358 8.49234 27.4547 8.0197 22.265 9.50656ZM37.5778 13.1214C42.4207 14.5876 47.341 17.1391 51.7752 20.4832C57.4822 24.7874 57.5261 24.9288 54.0895 27.9494C46.4672 34.6488 38.7551 37.9175 30.5682 37.9175C22.3499 37.9175 14.6734 34.6524 6.96406 27.8762L3.89787 25.1818L7.27945 22.1449C11.1553 18.663 18.9029 14.3104 23.5586 12.9984C28.0325 11.7383 33.1609 11.783 37.5778 13.1214ZM27.0634 15.4014C19.1522 18.9814 18.332 30.093 25.6835 34.1058C32.5086 37.8308 40.2708 33.1733 40.4261 25.2593C40.5061 21.2131 38.6535 17.9323 35.2956 16.1725C32.7216 14.8236 29.0929 14.4838 27.0634 15.4014ZM34.804 20.351C36.5363 21.9302 36.9735 22.8933 36.9735 25.1243C36.9735 27.3553 36.5363 28.3183 34.804 29.8976C31.9446 32.506 29.1695 32.4853 26.2627 29.8343C24.4943 28.2216 24.0237 27.2309 24.0237 25.1243C24.0237 23.0176 24.4943 22.0269 26.2627 20.4142C29.1695 17.7632 31.9446 17.7426 34.804 20.351ZM9.83111 43.4463L6.84778 46.5508L8.73595 47.4293C10.5127 48.2551 10.8121 48.1165 13.7745 45.0917C15.5074 43.3233 16.7822 41.7313 16.6089 41.5536C16.4348 41.3766 15.5102 41.0312 14.5536 40.7867C13.1326 40.4228 12.2686 40.9097 9.83111 43.4463ZM45.7111 40.8948C43.9378 41.3681 44.1599 41.9083 47.5143 45.2686C50.3368 48.0966 50.6599 48.2388 52.4123 47.4236L54.2886 46.5508L51.3345 43.4783C48.402 40.4278 48.0567 40.2693 45.7111 40.8948ZM28.6118 47.3347C28.7991 49.6453 29.0595 50 30.5682 50C32.0769 50 32.3373 49.6453 32.5246 47.3347C32.7321 44.7768 32.6534 44.6695 30.5682 44.6695C28.483 44.6695 28.4043 44.7768 28.6118 47.3347Z" fill="#FF5E14"/>
</svg>
