<svg width="62" height="62" viewBox="0 0 62 62" fill="none" xmlns="http://www.w3.org/2000/svg">
<path fill-rule="evenodd" clip-rule="evenodd" d="M47.0307 5.68717L41.397 11.3743V15.2475V19.1206L30.4517 30.0967C24.4318 36.1336 19.5064 41.4394 19.5064 41.888C19.5064 44.2135 22.7874 41.6844 32.7052 31.7129L43.6363 20.7226H47.5206H51.4049L56.7025 15.3755C59.6159 12.4346 62 9.8163 62 9.55706C62 9.29782 59.9848 9.08577 57.5214 9.08577H53.0429L52.8536 4.54289L52.6643 0L47.0307 5.68717ZM16.5086 21.3652C8.19857 23.1107 2.1619 29.2608 0.418371 37.7576C-1.38503 46.5428 2.76003 55.5471 10.5718 59.8165C13.3564 61.3377 15.0085 61.7495 19.1767 61.9616C28.3747 62.4283 35.0172 58.6425 38.9021 50.7184C41.7003 45.0106 41.813 39.0027 39.2279 33.333L37.4883 29.5174L35.211 31.8041L32.9331 34.0914L34.0192 37.4253C35.3996 41.6624 34.8923 45.4153 32.4064 49.3505C26.494 58.7116 12.69 58.0542 7.72599 48.1758C4.86861 42.4906 5.89039 36.2655 10.4256 31.731C14.881 27.2774 19.6435 26.1874 25.4774 28.2872L28.5517 29.394L30.6107 27.3265C32.4045 25.5247 32.5474 25.1452 31.722 24.3772C29.0726 21.9147 21.2576 20.3677 16.5086 21.3652ZM14.9988 33.1675C10.8306 36.0244 9.34203 41.6889 11.5375 46.3359C14.5816 52.7769 24.4788 53.574 28.6354 47.7129C30.16 45.5627 30.943 40.2375 29.9869 38.5218C29.4602 37.5766 28.8672 37.98 25.8263 41.3547C22.9722 44.5218 21.8995 45.2892 20.3286 45.2892C19.2546 45.2892 18.0152 44.8522 17.5729 44.3175C16.2807 42.7543 16.6026 39.9589 18.2026 38.8489C18.9907 38.302 20.9351 36.7032 22.5234 35.2964C25.0318 33.0757 25.2559 32.6768 24.2296 32.2715C21.6523 31.252 17.157 31.689 14.9988 33.1675Z" fill="#FF5E14"/>
</svg>
