<svg width="62" height="50" viewBox="0 0 60 66" fill="none" xmlns="http://www.w3.org/2000/svg">
<path fill-rule="evenodd" clip-rule="evenodd" d="M26.0882 2.38722C26.7347 4.04484 26.7347 5.36154 26.0882 7.01915C25.1899 9.32378 25.1974 9.33106 27.5777 8.46136C29.3082 7.82893 30.658 7.83864 32.4587 8.49699L34.9477 9.40637L33.6915 7.05478C32.575 4.96312 32.575 4.44325 33.6915 2.35159L34.9477 0L32.4587 0.909381C30.658 1.56773 29.3082 1.57745 27.5777 0.94501C25.1974 0.0753092 25.1899 0.0825958 26.0882 2.38722ZM50.8787 5.14047C50.8787 5.30323 51.3153 6.36485 51.8497 7.49935C52.5874 9.06789 52.5848 10.0607 51.8405 11.6438C50.9205 13.5986 50.9757 13.6893 52.7513 13.1362C55.1023 12.4034 55.8466 12.4001 58.1383 13.1152C59.8687 13.6553 59.9122 13.5573 58.9939 11.2008C58.2487 9.28896 58.262 8.35204 59.0524 7.12604C60.5236 4.84489 60.3479 4.61897 57.9292 5.68625C56.3334 6.38995 55.1466 6.40372 53.3292 5.73889C51.981 5.24655 50.8787 4.97689 50.8787 5.14047ZM1.53351 5.9883C1.53351 6.23123 1.93747 7.16005 2.43092 8.05324C3.06488 9.19907 3.06906 10.3975 2.44513 12.1297C1.65728 14.3177 1.71834 14.5161 3.01135 13.9646C4.85301 13.1783 7.40392 13.1735 9.22467 13.9525C10.4884 14.4942 10.5394 14.295 9.6905 12.1183C8.97876 10.2923 8.97877 9.16506 9.69135 7.65158C10.6289 5.65953 10.6038 5.64091 8.11399 6.48146C6.31498 7.08879 5.00021 7.07746 3.55916 6.44097C2.44513 5.94944 1.53351 5.74618 1.53351 5.9883ZM7.12625 23.8892C3.36012 27.3162 0.154361 30.1998 0.0029805 30.2978C-0.340763 30.5197 29.1618 65.7815 29.8727 65.9993C30.1562 66.0859 37.0503 58.1558 45.1939 48.3769L60 30.5958L52.9077 24.1273L45.8154 17.6596H29.8944H13.9727L7.12625 23.8892ZM24.9515 21.5611C24.9515 21.9255 23.7422 23.7475 22.2635 25.61L19.5754 28.9965H13.8999C10.7786 28.9965 8.22103 28.7228 8.21769 28.3892C8.21351 28.0555 10.0016 26.2473 12.1904 24.3711C15.7708 21.3028 16.6097 20.9579 20.5607 20.9295C22.9752 20.9125 24.9515 21.1967 24.9515 21.5611ZM47.5926 24.265C49.86 26.1161 51.715 27.9381 51.715 28.3139C51.715 28.6888 49.1307 28.9965 45.9717 28.9965H40.2285L38.0263 25.7744C36.8153 24.0026 35.8242 22.1806 35.8242 21.7255C35.8242 21.2712 37.5446 20.8987 39.6472 20.8987C42.9115 20.8987 44.0707 21.3895 47.5926 24.265ZM32.8668 24.7306C34.0336 26.3931 34.9879 28.0329 34.9879 28.3746C34.9879 28.7163 32.7297 28.9965 29.9697 28.9965C27.2097 28.9965 24.9515 28.7933 24.9515 28.5438C24.9515 28.0491 30.096 21.7085 30.4975 21.7085C30.6338 21.7085 31.7001 23.0681 32.8668 24.7306ZM22.1456 42.7117C23.7079 48.2514 24.8729 53.1141 24.7333 53.519C24.5192 54.1417 9.00889 36.3169 7.06435 33.2122C6.54497 32.3838 7.75517 32.2146 12.8561 32.4024L19.3044 32.6405L22.1456 42.7117ZM36.3536 33.6527C36.1228 34.4325 34.7679 39.2604 33.3427 44.3823C31.9176 49.5041 30.5309 54.2413 30.2616 54.9094C29.8518 55.9248 25.3873 42.1141 23.651 34.4625L23.1459 32.2356H29.9597C36.0509 32.2356 36.7291 32.3854 36.3536 33.6527ZM52.8558 33.2235C51.4926 35.3597 34.7921 54.9904 34.5437 54.7491C34.2937 54.5069 39.3235 35.9363 40.3213 33.4171C40.6751 32.5255 42.3453 32.2356 47.1385 32.2356C51.9216 32.2356 53.3309 32.4794 52.8558 33.2235Z" fill="#FF5E14"/>
</svg>
